<svg id="Layer_1" data-name="Layer 1" xmlns="http://www.w3.org/2000/svg" viewBox="0 0 600 300"><defs><style>.cls-1{fill:#eff1f7;}.cls-2{fill:#7bbdff;}.cls-3{fill:#cfd5e2;}.cls-4{fill:#a7b3c6;}.cls-5{fill:#8f9fb5;}.cls-6{fill:#5d6c7c;}.cls-7{fill:#1d8aed;}.cls-8{fill:#dfe2ea;}</style></defs><title>404-01</title><polygon class="cls-1" points="112.31 218.62 257.86 238.39 238.06 205.59 112.31 218.62"/><path class="cls-2" d="M413.78,58.67A5.22,5.22,0,1,1,419,53.45,5.23,5.23,0,0,1,413.78,58.67Zm0-8.92a3.7,3.7,0,1,0,3.7,3.7A3.7,3.7,0,0,0,413.78,49.75Z"/><path class="cls-2" d="M367.09,261.11h0a.74.74,0,0,1-.65-.37l-6.32-10.45a.78.78,0,0,1,0-.77.76.76,0,0,1,.67-.38H373.4a.74.74,0,0,1,.66.38.76.76,0,0,1,0,.77l-6.31,10.45A.76.76,0,0,1,367.09,261.11Zm-5-10.45,5,8.21,5-8.21Z"/><path class="cls-2" d="M449.78,113.77a.72.72,0,0,1-.32-.08l-8.07-3.8a.77.77,0,0,1-.37-1l3.81-8.07a.75.75,0,0,1,.43-.39.78.78,0,0,1,.58,0l8.08,3.81a.76.76,0,0,1,.36,1l-3.81,8.07a.79.79,0,0,1-.69.44Zm-7.06-4.94,6.7,3.16,3.16-6.7-6.7-3.15Z"/><path class="cls-2" d="M217.33,49.32a.76.76,0,0,1-.69-1.09L222,36.82a.76.76,0,0,1,1.32-.1l6.76,10.16a.77.77,0,0,1,.06.75.76.76,0,0,1-.62.43l-12.14,1.26Zm5.5-10.63-4.23,9,9.54-1Z"/><polygon class="cls-3" points="293.81 200.74 330.64 194.13 330.64 84.74 293.81 91.35 293.81 200.74"/><polygon class="cls-4" points="293.81 200.64 223.21 200.64 223.21 103.21 293.81 91.25 293.81 200.64"/><polygon class="cls-5" points="224.17 218.62 112.31 218.62 181.94 200.63 293.81 200.63 224.17 218.62"/><polygon class="cls-4" points="224.17 218.62 300.33 218.62 369.96 200.63 293.81 200.63 224.17 218.62"/><polygon class="cls-1" points="224.17 109.24 112.31 109.24 181.94 91.25 293.81 91.25 224.17 109.24"/><polygon class="cls-3" points="224.17 109.24 252.02 86.34 321.65 68.35 293.81 91.25 224.17 109.24"/><rect class="cls-3" x="112.31" y="109.23" width="111.86" height="109.39"/><rect class="cls-1" x="109.27" y="176.41" width="44.97" height="23.57" rx="2.59" transform="translate(319.95 56.44) rotate(90)"/><rect class="cls-6" x="130.87" y="161.38" width="1.78" height="17.34" transform="translate(301.81 38.3) rotate(90)"/><rect class="cls-6" x="130.87" y="173.96" width="1.78" height="17.34" transform="translate(314.39 50.88) rotate(90)"/><rect class="cls-6" x="130.87" y="179.21" width="1.78" height="17.34" transform="translate(319.63 56.12) rotate(90)"/><rect class="cls-6" x="130.87" y="183.82" width="1.78" height="17.34" transform="translate(324.24 60.73) rotate(90)"/><rect class="cls-6" x="130.19" y="188.26" width="3.14" height="17.34" transform="translate(328.68 65.17) rotate(90)"/><rect class="cls-6" x="131.07" y="193.62" width="1.37" height="17.34" transform="translate(334.04 70.53) rotate(90)"/><rect class="cls-6" x="131.07" y="197.87" width="1.37" height="17.34" transform="translate(338.3 74.79) rotate(90)"/><rect class="cls-6" x="129.98" y="168.59" width="3.55" height="17.34" transform="translate(309.02 45.51) rotate(90)"/><ellipse class="cls-1" cx="426.73" cy="217.31" rx="25.48" ry="4.19"/><ellipse class="cls-1" cx="352.58" cy="213.54" rx="27.99" ry="3.3"/><ellipse class="cls-5" cx="283.12" cy="208.28" rx="27.99" ry="4.31"/><path class="cls-2" d="M361.89,96.59H353a.76.76,0,0,1-.77-.76V86.9a.76.76,0,0,1,.77-.76h8.92a.76.76,0,0,1,.76.76v8.93A.76.76,0,0,1,361.89,96.59Zm-8.16-1.52h7.4V87.66h-7.4Z"/><path class="cls-2" d="M394.79,184.53q-15.15,19.14-28.61,23t-26.69-6.63q-12.93-10.23-12.13-24.72t15.32-32.85q15.22-19.25,28.75-23.15t26.74,6.56q12.88,10.19,12.07,24.75T394.79,184.53Zm-32.72-25.89q-9.68,12.24-11.78,18t1.5,8.65c2.43,1.92,5.4,1.71,8.9-.66s8.4-7.52,14.7-15.49,10.25-14,11.77-18,1.07-7-1.33-8.87-5.33-1.71-8.8.58S368.58,150.42,362.07,158.64Z"/><path class="cls-7" d="M389.91,189.4q-15.15,19.14-28.61,23t-26.68-6.64Q321.69,195.53,322.49,181t15.32-32.85Q353,128.93,366.55,125t26.75,6.56q12.87,10.2,12.06,24.75T389.91,189.4ZM357.2,163.52q-9.69,12.22-11.79,18t1.51,8.65q3.65,2.9,8.9-.66t14.7-15.48q9.5-12,11.76-18T381,147.17q-3.6-2.85-8.8.58T357.2,163.52Z"/><path class="cls-2" d="M309.54,168.6V115.9a2.93,2.93,0,0,0-2.93-2.92h-18a4.87,4.87,0,0,0-3.45,1.43l-4.34,4.91,2.64-.25-35.12,49.84v18.25H285V205h19.66l-1.38,4.39,4.89-3.2a2.9,2.9,0,0,0,1.35-2.12,2.64,2.64,0,0,0,0-.28v-16.6h5.25l-1.47,4.44,5-3.25a2.9,2.9,0,0,0,1.35-2.11,2.83,2.83,0,0,0,0-.29V171.52a2.93,2.93,0,0,0-2.93-2.92Zm-24.32-18.85q-.23,5.13-.22,8.15v10.7H267l13-20.2c1.8-2.81,3.42-.79,4.84-4h.69A53.49,53.49,0,0,0,285.22,149.75Z"/><path class="cls-7" d="M311.87,192h-7.21v14.89a2.92,2.92,0,0,1-2.92,2.92H283.05a2.93,2.93,0,0,1-2.93-2.92V192H246.37a2.93,2.93,0,0,1-2.93-2.92V174.69A3,3,0,0,1,244,173L280.25,120a4.87,4.87,0,0,1,4-2.12h17.47a2.93,2.93,0,0,1,2.92,2.93v52.69h7.21a2.93,2.93,0,0,1,2.92,2.93v12.71A2.92,2.92,0,0,1,311.87,192Zm-31.75-18.56V162.78c0-2,.08-4.73.22-8.15s.27-5.21.35-5.38H280a66.1,66.1,0,0,1-4.85,9.06L265,173.47Z"/><polygon class="cls-1" points="224.17 218.62 257.86 238.38 257.86 129 224.17 109.23 224.17 218.62"/><polygon class="cls-8" points="224.17 109.23 257.86 168.44 257.86 238.38 224.17 218.62 224.17 109.23"/><path class="cls-2" d="M432.45,142H416.63a2.92,2.92,0,0,0-2.11,1.36l-3,4.7,4.24-1.2v31.81h-16.6l-.28,0a2.89,2.89,0,0,0-2.12,1.36l-3.14,4.85,4.33-1.35v19.66h17.81v10.13H429.4l-1.59,4.47,5.08-3.28a2.91,2.91,0,0,0,1.37-2.11,2.81,2.81,0,0,0,0-.29v-8.92H485l-1.45,4.41,4.95-3.22a2.92,2.92,0,0,0,1.36-2.11,2.81,2.81,0,0,0,0-.29V181.81a2.92,2.92,0,0,0-1.27-2.42L435.2,142.86A4.91,4.91,0,0,0,432.45,142Zm26.05,37.25a51.38,51.38,0,0,0-5.38-.35q-5.13-.22-8.15-.22h-10.7V163.53l15.16,10.19a67.34,67.34,0,0,0,9.07,4.85Z"/><path class="cls-7" d="M410.84,215.31V208.1H396a2.92,2.92,0,0,1-2.92-2.92V186.49a2.92,2.92,0,0,1,2.92-2.92h14.89V149.81a2.93,2.93,0,0,1,2.92-2.93h13.82a4.91,4.91,0,0,1,2.75.85l53.42,36.54a2.93,2.93,0,0,1,1.27,2.41v18.5a2.92,2.92,0,0,1-2.92,2.92H429.4v7.21a2.92,2.92,0,0,1-2.93,2.92H413.76A2.92,2.92,0,0,1,410.84,215.31Zm18.56-31.74h10.69c2,0,4.73.07,8.15.22a53.17,53.17,0,0,1,5.38.34v-.69a66.1,66.1,0,0,1-9.06-4.85L429.4,168.4Z"/><path class="cls-5" d="M223.6,153.22H206.8l3.92,3.91-3.92,2.7v.25l3.88,3.89-3.88,4.08,3.48,3.24-3.48,3.34h19.59v-.25l-.48-.56-.09-2.62s-1.78-2.63-1.91-2.77a39.86,39.86,0,0,1,1.83-4.14l.65-3.76v-.09l-1-1.49.45-4Z"/><path class="cls-4" d="M223.6,174.63l4,3.41v-.24l-.48-.56-.09-2.63s-1.78-2.63-1.92-2.76a39.11,39.11,0,0,1,1.83-4.15l.66-3.76v-.08l-1-1.5.44-4,.53-1.66v-.55l-4-2.92Z"/><path class="cls-4" d="M253.26,74l72.3-18.6-1.2-2-.64-1-11.59,2.34h-4.47s-11.38,7-12.41,7-6.87-2-6.87-2c.54-.88-5.86,2.83-5.86,2.83l-12.87,4L258.42,68.1,254,69.48l-3.62,2.07,2.41.68-1.55,2.24Z"/><polygon class="cls-8" points="254.72 71.38 252.02 86.34 321.65 68.35 324.36 53.39 254.72 71.38"/></svg>