<svg id="Layer_2" height="512" viewBox="0 0 128 128" width="512" xmlns="http://www.w3.org/2000/svg" data-name="Layer 2"><path d="m114.651 36.191c-5.633-10.808-18.12-17.261-33.4-17.261h-39.485a11.763 11.763 0 0 0 -11.75 11.75v6.32a1.751 1.751 0 0 0 1.75 1.75h81.334a1.75 1.75 0 0 0 1.551-2.559zm-81.135-.941v-4.57a8.259 8.259 0 0 1 8.25-8.25h39.484c12.668 0 23.171 4.739 28.754 12.82z"/><path d="m127.985 50.017c-.018-.619-.08-1.243-.08-1.862-1.258-23.095-20.443-39.225-46.655-39.225h-29.25v-7.18a1.751 1.751 0 0 0 -1.75-1.75h-16.833a1.75 1.75 0 0 0 -1.75 1.75v7.18h-9.917a21.775 21.775 0 0 0 -21.75 21.75v20a11.513 11.513 0 0 0 11.5 11.5h9.66l2.653 9.82a1.751 1.751 0 0 0 1.687 1.292h8.75v10.361c-9.211 1.08-16.438 10.587-16.438 22.121 0 12.255 8.159 22.226 18.188 22.226s18.187-9.971 18.187-22.226c0-11.534-7.226-21.041-16.437-22.121v-10.361h8.75a1.751 1.751 0 0 0 1.687-1.292l2.653-9.822h65.66a11.513 11.513 0 0 0 11.5-11.5c0-.224-.007-.442-.015-.661zm-91.976 74.483c-1.224-.216-4.088-6.839-4.088-18.726s2.863-18.508 4.074-18.726c1.224.216 4.088 6.838 4.088 18.726s-2.863 18.508-4.074 18.726zm-14.7-18.725c0-8.16 4.122-15.1 9.845-17.658-1.861 4.339-2.74 11.147-2.74 17.658s.879 13.319 2.74 17.658c-5.72-2.561-9.842-9.499-9.842-17.659zm29.375 0c0 8.16-4.121 15.1-9.844 17.658 1.861-4.339 2.74-11.147 2.74-17.658s-.879-13.319-2.74-17.658c5.726 2.559 9.847 9.497 9.847 17.657zm-15.517-102.275h13.333v5.43h-13.333zm-31.667 27.18a18.271 18.271 0 0 1 18.25-18.25h59.5c23.548 0 40.96 13.915 43.016 34.07h-120.766zm41.658 39.112h-18.316l-2.056-7.616h22.428zm71.342-11.116h-105a8.009 8.009 0 0 1 -8-8v-.676h120.983v.136c.007.179.013.358.013.54a8.009 8.009 0 0 1 -7.996 8z"/></svg>